<svg width="19" height="14" viewBox="0 0 19 14" fill="none" xmlns="http://www.w3.org/2000/svg">
<path fill-rule="evenodd" clip-rule="evenodd" d="M0.703125 0.46875V11H4.61328V10.1924L4.89617 11H7.59797L7.88086 10.1924V11H11V10.5V8.5L11.5 7L11.8984 5.73438L11.7969 0.46875H7.57547L6.24864 4.42643L4.91801 0.46875H0.703125ZM4.19922 1.46875H1.70312V10H3.61328V7.79102L3.42322 3.76989L5.60547 10H6.88867L9.07092 3.76989L8.88086 7.79102V10H10.7969V1.46875H8.29492L6.25 7.56836L4.19922 1.46875Z" fill="black"/>
<path fill-rule="evenodd" clip-rule="evenodd" d="M14.5925 9.83867V8.18154C14.5873 8.20999 14.5826 8.24028 14.5784 8.27253L14.5781 8.27522C14.5529 8.46602 14.5393 8.67752 14.5393 8.91116V9.08884C14.5393 9.32706 14.5529 9.54684 14.5786 9.74918C14.5827 9.78115 14.5874 9.81094 14.5925 9.83867ZM13.4039 9.89522C13.3715 9.64009 13.3553 9.3713 13.3553 9.08884V8.91116C13.3553 8.63326 13.3715 8.3713 13.4039 8.12528C13.4363 7.87472 13.4964 7.65148 13.5843 7.45558C13.6721 7.25968 13.7993 7.10706 13.9658 6.99772C14.1369 6.88383 14.3543 6.82688 14.6179 6.82688C14.8723 6.82688 15.085 6.88383 15.2562 6.99772C15.4319 7.10706 15.5614 7.2574 15.6447 7.44875C15.7325 7.63554 15.7765 7.84738 15.7765 8.08428H17.816C17.816 7.65071 17.7484 7.26195 17.6131 6.918C17.5579 6.77766 17.4914 6.64478 17.4137 6.51936C17.1454 6.082 16.7731 5.74715 16.2968 5.51481C15.825 5.28246 15.2816 5.16629 14.6665 5.16629C14.0838 5.16629 13.575 5.26196 13.1403 5.4533C12.7102 5.64009 12.3494 5.90433 12.0581 6.24601C11.7667 6.5877 11.547 6.98633 11.399 7.44191C11.2557 7.89749 11.184 8.38724 11.184 8.91116V9.08884C11.184 9.61731 11.2557 10.1093 11.399 10.5649C11.547 11.0159 11.7667 11.4123 12.0581 11.754C12.3494 12.0957 12.7125 12.3622 13.1472 12.5535C13.582 12.7403 14.0907 12.8337 14.6734 12.8337C15.2654 12.8337 15.7973 12.7198 16.269 12.492C16.7408 12.2597 17.1154 11.9385 17.3929 11.5285C17.4496 11.446 17.5006 11.361 17.546 11.2733C17.726 10.9253 17.816 10.5365 17.816 10.1071H15.7765C15.7765 10.3303 15.7279 10.5216 15.6308 10.6811C15.5383 10.836 15.4065 10.9567 15.2354 11.0433C15.0642 11.1298 14.8631 11.1731 14.6318 11.1731C14.3589 11.1731 14.1393 11.1185 13.9728 11.0091C13.8063 10.8998 13.6768 10.7494 13.5843 10.5581C13.4964 10.3667 13.4363 10.1458 13.4039 9.89522ZM18.3755 12.1791C17.9777 12.7655 17.4428 13.2178 16.7985 13.5352L16.7902 13.5393C16.1367 13.8548 15.423 14 14.6734 14C13.9641 14 13.2879 13.8864 12.6739 13.6226L12.6642 13.6184C12.0745 13.3589 11.564 12.9878 11.1515 12.5041C10.7558 12.0401 10.4645 11.5089 10.2724 10.9236L10.2681 10.9103C10.0859 10.3315 10 9.72188 10 9.08884V8.91116C10 8.28159 10.0863 7.67441 10.2681 7.09658L10.2713 7.08644C10.4629 6.49689 10.7541 5.96186 11.1515 5.49587C11.5632 5.01311 12.0717 4.64321 12.66 4.38729C13.276 4.11669 13.9547 4 14.6665 4C15.4341 4 16.1634 4.14558 16.8242 4.47065C17.4956 4.79858 18.0383 5.28333 18.4256 5.91394C18.8275 6.56339 19 7.30424 19 8.08428V10.1071C19 10.8556 18.8001 11.5603 18.3755 12.1791Z" fill="black"/>
</svg>
